<svg width="21" height="8" viewBox="0 0 21 8" fill="none" xmlns="http://www.w3.org/2000/svg">
<path d="M16.4534 2.6001C15.2397 1.5351 13.7961 0.765267 12.2354 0.35079C10.6748 -0.0636865 9.03944 -0.111573 7.45722 0.210875C5.875 0.533322 4.3888 1.21736 3.11482 2.20952C1.84084 3.20168 0.813613 4.47506 0.113444 5.9301C0.0400806 6.09043 0.00143428 6.26444 3.91692e-05 6.44075C-0.00135595 6.61705 0.0345317 6.79166 0.105349 6.95313C0.176166 7.11459 0.280313 7.25926 0.410961 7.37765C0.54161 7.49604 0.695807 7.58548 0.863444 7.6401C1.14849 7.73502 1.45842 7.72234 1.73476 7.60443C2.01109 7.48653 2.23472 7.27157 2.36344 7.0001C2.89175 5.90647 3.6632 4.94815 4.61877 4.19846C5.57434 3.44878 6.68872 2.92758 7.87667 2.67475C9.06462 2.42191 10.2947 2.44413 11.4727 2.73971C12.6507 3.03529 13.7456 3.59639 14.6734 4.3801L12.7634 6.2901C12.623 6.42937 12.5271 6.60716 12.4877 6.80097C12.4483 6.99478 12.4673 7.19592 12.5422 7.37895C12.6171 7.56199 12.7446 7.71869 12.9086 7.82926C13.0726 7.93982 13.2657 7.99927 13.4634 8.0001H19.0534C19.3187 8.0001 19.573 7.89475 19.7606 7.70721C19.9481 7.51967 20.0534 7.26532 20.0534 7.0001V1.4101C20.0546 1.21148 19.9966 1.01701 19.8868 0.851489C19.777 0.68597 19.6204 0.556898 19.4369 0.480731C19.2535 0.404565 19.0515 0.384753 18.8568 0.423823C18.662 0.462892 18.4833 0.559073 18.3434 0.700102L16.4534 2.6001Z" fill="white"/>
</svg>
