<svg width="21" height="8" viewBox="0 0 21 8" fill="none" xmlns="http://www.w3.org/2000/svg">
<path d="M10.5 0C7.96072 0.000752582 5.50834 0.924835 3.6 2.6L1.71 0.71C1.57073 0.569578 1.39295 0.473607 1.19913 0.434222C1.00532 0.394837 0.80418 0.413807 0.621148 0.488732C0.438115 0.563658 0.28141 0.691174 0.170847 0.855158C0.0602843 1.01914 0.000829231 1.21223 0 1.41V7C0 7.26522 0.105357 7.51957 0.292893 7.70711C0.48043 7.89464 0.734784 8 1 8H6.59C6.78862 8.00115 6.98309 7.94313 7.14861 7.83333C7.31413 7.72353 7.4432 7.56693 7.51937 7.38348C7.59554 7.20004 7.61535 6.99807 7.57628 6.80332C7.53721 6.60857 7.44103 6.42987 7.3 6.29L5.39 4.38C6.31787 3.59629 7.4127 3.03518 8.59074 2.7396C9.76878 2.44403 10.9988 2.42181 12.1868 2.67464C13.3747 2.92748 14.4891 3.44868 15.4447 4.19836C16.4002 4.94805 17.1717 5.90636 17.7 7C17.8287 7.27146 18.0524 7.48643 18.3287 7.60433C18.605 7.72224 18.915 7.73492 19.2 7.64C19.3685 7.58504 19.5235 7.495 19.6548 7.3758C19.786 7.2566 19.8905 7.11096 19.9613 6.94845C20.0322 6.78595 20.0678 6.61028 20.0659 6.43301C20.0639 6.25575 20.0244 6.0809 19.95 5.92C19.0865 4.14793 17.743 2.65369 16.0725 1.60716C14.4019 0.560637 12.4713 0.00381429 10.5 0Z" fill="white"/>
</svg>
